<svg xmlns="http://www.w3.org/2000/svg" width="24" height="24" viewBox="0 0 24 24" fill="currentColor" aria-hidden="true" role="img">
  <title>WhatsApp</title>
  <path d="M19.05 4.95A9.9 9.9 0 0 0 12 2a9.97 9.97 0 0 0-9.98 9.98c0 1.76.46 3.41 1.27 4.85L2 22l5.33-1.23A9.9 9.9 0 0 0 12 22a9.97 9.97 0 0 0 9.98-9.98 9.9 9.9 0 0 0-2.93-7.07ZM12 20.4c-1.52 0-2.97-.4-4.22-1.15l-.3-.18-3.15.73.7-3.22-.19-.31A8.4 8.4 0 0 1 3.6 12c0-4.64 3.76-8.4 8.4-8.4s8.4 3.76 8.4 8.4-3.76 8.4-8.4 8.4Zm4-5.44c-.22-.11-1.31-.64-1.51-.72-.2-.07-.35-.11-.49.11-.14.22-.56.72-.69.87-.13.16-.26.18-.48.07-.22-.11-.94-.35-1.79-1.1-.66-.58-1.11-1.3-1.24-1.52-.13-.22-.01-.34.1-.46.1-.1.22-.26.33-.39.11-.13.14-.22.22-.37.07-.16.04-.29-.02-.4-.06-.11-.49-1.18-.67-1.62-.18-.44-.36-.38-.49-.39h-.42c-.16 0-.4.06-.61.29-.22.22-.83.81-.83 1.98 0 1.17.86 2.31 1 2.47.14.16 1.7 2.6 4.16 3.54.58.23 1.03.36 1.38.46.58.18 1.1.16 1.51.1.46-.07 1.31-.54 1.49-1.06.18-.53.18-.98.12-1.07-.06-.09-.2-.14-.42-.25Z"/>
</svg>
